<svg width="138" height="31" viewBox="0 0 138 31" fill="none" xmlns="http://www.w3.org/2000/svg">
<path d="M57.8983 7.74227C59.0367 8.79311 59.6059 10.3256 59.6059 12.3835C59.6059 14.3976 59.0367 15.93 57.8983 16.9809C56.7599 18.0317 55.0961 18.5571 52.9068 18.5571H49.1413V24.8184H45.332V6.16602H52.9068C55.0961 6.16602 56.7599 6.69143 57.8983 7.74227ZM54.9209 14.3976C55.3588 13.9597 55.6215 13.303 55.6215 12.3835C55.6215 11.464 55.4026 10.8072 54.9209 10.4131C54.4831 10.0191 53.6949 9.80016 52.6441 9.80016H49.0975V15.0106H52.6441C53.7387 15.0106 54.4831 14.7916 54.9209 14.3976Z" fill="#061238"/>
<path d="M70.7705 11.1566V14.7469C70.2013 14.6594 69.6758 14.5718 69.1504 14.5718C68.012 14.5718 67.2239 14.8783 66.6985 15.4475C66.1731 16.0167 65.9103 16.9362 65.9103 18.2497V24.8175H62.2324V11.2442H65.8228V13.4772C66.1293 12.6891 66.6547 12.0761 67.3115 11.6382C67.9682 11.2004 68.7564 10.9814 69.6321 10.9814C70.0699 10.9814 70.464 11.0252 70.7705 11.1566Z" fill="#061238"/>
<path d="M73.3103 8.61772C72.9162 8.17987 72.6973 7.65445 72.6973 6.99768C72.6973 6.3409 72.9162 5.7717 73.3103 5.37764C73.7043 4.93979 74.2735 4.76465 74.9741 4.76465C75.6746 4.76465 76.2001 4.98357 76.6379 5.37764C77.032 5.81549 77.2509 6.3409 77.2509 6.99768C77.2509 7.65445 77.032 8.22366 76.6379 8.61772C76.2438 9.05557 75.6746 9.23071 74.9741 9.23071C74.2735 9.23071 73.7481 9.01178 73.3103 8.61772ZM73.1351 11.2448H76.813V24.8181H73.1351V11.2448Z" fill="#061238"/>
<path d="M99.537 12.2079C100.325 13.0836 100.719 14.3534 100.719 15.9296V24.818H97.0413V16.8491C97.0413 15.9734 96.8661 15.3166 96.5596 14.9226C96.2531 14.4847 95.7277 14.3096 94.9834 14.3096C94.1515 14.3096 93.4947 14.5723 93.0568 15.0539C92.619 15.5356 92.3563 16.2361 92.3563 17.1556V24.8618H88.6783V16.8491C88.6783 15.9734 88.5032 15.3166 88.1967 14.9226C87.8464 14.4847 87.321 14.3096 86.6205 14.3096C85.8323 14.3096 85.1756 14.5723 84.6939 15.0539C84.2123 15.5356 83.9934 16.2361 83.9934 17.1118V24.818H80.3154V11.2447H83.9058V13.215C84.2561 12.5144 84.8253 11.9452 85.5258 11.5074C86.2264 11.0695 87.0583 10.8506 87.9778 10.8506C88.8973 10.8506 89.7292 11.0695 90.386 11.5074C91.0865 11.9452 91.5681 12.5582 91.8746 13.3901C92.2249 12.602 92.7941 11.989 93.5823 11.5511C94.3704 11.1133 95.2461 10.8506 96.2531 10.8506C97.698 10.8506 98.7927 11.2884 99.537 12.2079Z" fill="#061238"/>
<path d="M105.667 24.5553C104.616 24.1174 103.741 23.5482 103.084 22.7601L104.879 20.2643C105.405 20.7898 106.061 21.2276 106.849 21.5341C107.638 21.8406 108.426 22.0157 109.214 22.0157C109.871 22.0157 110.352 21.9282 110.703 21.7092C111.053 21.4903 111.228 21.2276 111.228 20.8773C111.228 20.5708 111.097 20.3081 110.834 20.133C110.571 19.9141 110.177 19.7827 109.652 19.6513L107.462 19.1259C106.105 18.8194 105.142 18.3378 104.529 17.681C103.916 17.0243 103.609 16.2361 103.609 15.2729C103.609 13.9593 104.091 12.9085 105.098 12.0766C106.105 11.2884 107.462 10.8506 109.17 10.8506C110.308 10.8506 111.359 11.0257 112.323 11.4198C113.286 11.8139 114.074 12.2955 114.687 12.9523L112.892 15.448C111.666 14.5285 110.44 14.0469 109.083 14.0469C108.47 14.0469 107.988 14.1345 107.681 14.3534C107.375 14.5285 107.2 14.835 107.2 15.1415C107.2 15.4042 107.331 15.6231 107.55 15.7983C107.769 15.9734 108.163 16.1486 108.732 16.2361L111.009 16.8053C112.366 17.1118 113.33 17.5935 113.943 18.2502C114.556 18.907 114.818 19.6951 114.818 20.7022C114.818 22.1033 114.337 23.1979 113.33 23.9861C112.323 24.7742 110.921 25.212 109.17 25.212C107.9 25.212 106.718 24.9931 105.667 24.5553Z" fill="#061238"/>
<path d="M120.073 24.2488C119.022 23.592 118.19 22.7601 117.621 21.6655C117.052 20.5708 116.745 19.3886 116.745 18.0313C116.745 16.7178 117.052 15.4918 117.621 14.3972C118.19 13.3025 119.022 12.4268 120.073 11.8139C121.124 11.2009 122.35 10.8506 123.751 10.8506C125.152 10.8506 126.378 11.1571 127.472 11.8139C128.567 12.4268 129.355 13.3025 129.968 14.3972C130.537 15.4918 130.844 16.7178 130.844 18.0313C130.844 19.3449 130.537 20.5708 129.968 21.6655C129.399 22.7601 128.567 23.6358 127.472 24.2488C126.378 24.8618 125.152 25.212 123.751 25.212C122.35 25.212 121.124 24.8618 120.073 24.2488ZM126.159 20.746C126.772 20.0454 127.035 19.1697 127.035 18.0313C127.035 16.8929 126.728 15.9734 126.159 15.3166C125.546 14.6161 124.758 14.3096 123.751 14.3096C122.744 14.3096 121.912 14.6599 121.343 15.3166C120.73 16.0172 120.467 16.8929 120.467 18.0313C120.467 19.1697 120.773 20.0892 121.343 20.746C121.956 21.4465 122.744 21.753 123.751 21.753C124.758 21.7968 125.59 21.4465 126.159 20.746Z" fill="#061238"/>
<path d="M133.515 5.33398H137.193V24.8183H133.515V5.33398Z" fill="#061238"/>
<path d="M18.3751 8.84471L14.4345 21.9364L12.508 28.4165C12.289 29.1171 11.8074 29.7739 11.2382 30.2117C11.1069 30.2993 10.9755 30.3869 10.8441 30.4744C10.3187 30.8247 9.70574 30.9999 9.09275 30.9999H1.95582C0.510915 30.9999 -0.320998 29.8177 0.11685 28.3728L5.98403 8.80092C6.42187 7.35602 7.95434 6.17383 9.39925 6.17383H16.5362C17.9811 6.21761 18.813 7.39981 18.3751 8.84471Z" fill="#00ADFF"/>
<path opacity="0.8" d="M14.4351 21.9355L12.5086 28.4157C12.2896 29.1163 11.808 29.773 11.2388 30.2109L7.38574 24.8254L14.4351 21.9355Z" fill="#0091FF"/>
<path d="M35.9335 12.3911C34.9264 15.8063 32.6058 18.9151 29.6722 21.1481C26.7387 23.3811 23.2359 24.7822 19.8206 24.7822H7.38574L8.17387 22.1552L10.4945 14.449L14.041 2.62709C14.4789 1.18219 16.0114 0 17.4563 0H27.2641C34.0945 0 37.9914 5.56068 35.9335 12.3911Z" fill="#FFAD00"/>
</svg>
